<svg xmlns="http://www.w3.org/2000/svg" viewBox="0 0 926.73 772.6">
  <defs>
    <style>
      .cls-1 {
        fill: #797979;
      }
    </style>
  </defs>
  <title>Asset 5</title>
  <g id="Layer_2" data-name="Layer 2">
    <g id="China">
      <polygon class="cls-1" points="246.65 88.04 285.15 122.97 281.58 170.02 357.86 231.33 494.56 264.12 608.79 222.06 608.79 187.13 705.03 144.36 728.55 134.38 668.67 108 674.38 78.06 717.15 58.81 727.13 7.49 774.18 0 807.68 47.41 878.97 91.6 926.73 72.36 926.73 144.36 905.35 167.88 888.95 219.92 831.92 281.23 792 291.92 734.97 316.16 752.08 346.1 773.47 336.83 789.86 363.21 768.48 405.98 817.66 476.55 821.23 519.33 779.88 629.82 722.85 676.87 613.78 721.07 597.39 736.04 610.3 743.2 602 762.8 577 772.6 564.5 762 571 743 597.39 736.04 577.43 721.78 533.4 708.24 494.56 681.15 429.86 690.42 402.77 708.24 355.01 674.73 340.75 624.83 357.15 559.04 314.38 548.14 258.77 573.5 178.22 535.01 99.8 503.64 44.2 448.04 18.54 404.55 40.63 348.24 16.4 306.18 0 259.13 8.55 220.63 63.45 211.37 112.63 184.04 121.19 158.61 146.14 134.38 186.77 106.57 246.65 88.04"/>
    </g>
  </g>
</svg>
