<svg xmlns="http://www.w3.org/2000/svg" viewBox="0 0 1653.15 849.03">
  <defs>
    <style>
      .cls-1 {
        fill: #797979;
      }
    </style>
  </defs>
  <g id="Layer_2" data-name="Layer 2">
    <g id="CIS">
      <path class="cls-1" d="M81.27,268.4,57.74,297.27,81.27,448,47.05,530.38l6.42,46L8.55,608.44,0,694H50.26L77,716.44,50.26,737.82l60.61-10.49L99.09,745.41,113.35,756l11.49-15.89-7.22-13,46-9.63-23.52,25.67,52.08,35.15,22.77,14L247,790.22l49.19-1.14,7.42,55,122,5,20.32-11.76,7.49-21.39,36.35-2.14L549.62,772l58.82-67.37,44.91-29.94,85.54-18.18,140,15,82.39-24.59,15-33.15,76.64,35.29,26,43.84s29.3,4.28,31.23,8.56-57.24,76.85-57.24,76.85l29.22,5.48,77-87.68,6.41-78.06-49.18-20.32,64.1-81.26,103.78-2.14,59.88-60.42,63.09-6.95-88,111.74-3.91,95.71,54.53-65.23,27.61-80.2,134.93-55.07L1528,401.36l43.84-29.78,53.47,39,27.8-48.53-147.57-88.34-108.19-5.34L1257.5,208.51l-98.37-26.73-57.74,35.29L950.61,166.81,848,141.15l51.33-63.09L797.43,0,632,95.17,571,154,521.82,202.1l-62-31L445.9,289.78l-64.16-22.45-60.95,35.28-108,59.47L147.56,417l-46-57.45H169l26.73-34.51Z"/>
      <polygon class="cls-1" points="443.76 19.25 345.39 76.99 297.27 217.07 329.35 249.15 321.86 206.38 378.54 93.03 455.52 40.63 443.76 19.25"/>
      <polygon class="cls-1" points="1118.49 65.23 1204.04 65.23 1197.62 88.75 1138.81 112.28 1118.49 65.23"/>
      <polyline class="cls-1" points="1222.22 82.34 1273.3 98.38 1234.59 112.28 1222.22 88.75"/>
      <polygon class="cls-1" points="1534.45 228.83 1565.46 217.07 1565.46 240.59 1534.45 228.83"/>
      <polygon class="cls-1" points="1171.96 627.68 1178.38 728.2 1192.28 728.2 1186.93 621.27 1171.96 627.68"/>
      <polygon class="cls-1" points="1171.96 144.36 1192.28 149.24 1160.2 166.81 1171.96 144.36"/>
      <polygon class="cls-1" points="998.73 139.01 1028.67 166.81 1013.7 183.92 989.11 166.81 998.73 139.01"/>
    </g>
  </g>
</svg>
