<svg xmlns="http://www.w3.org/2000/svg" viewBox="0 0 563.65 639.03">
  <defs>
    <style>
      .cls-1 {
        fill: #797979;
      }
    </style>
  </defs>
  <title>Asset 2</title>
  <g id="Layer_2" data-name="Layer 2">
    <g id="North_America" data-name="North America">
      <polygon class="cls-1" points="81.66 264.41 56.54 366.06 87.37 443.15 136.49 550.52 182.17 584.78 256.41 634.46 307.24 639.03 324.94 628.18 314.09 611.05 282.11 608.19 252.99 579.07 260.89 535.67 294.67 501.98 358.63 492.84 391.76 495.69 414.6 535.67 427.16 528.82 406.61 479.7 442.58 427.16 442.58 390.04 468.85 350.07 483.7 308.95 516.59 273.66 563.65 250.13 463.37 167.47 368.34 150.19 376.91 211.3 319.8 215.29 283.25 186.74 320.94 140.48 312.95 89.09 255.84 70.81 151.34 56.54 96.51 0 43.97 23.41 0 66.82 15.42 103.36 72.53 131.92 81.66 264.41"/>
    </g>
  </g>
</svg>
