<svg xmlns="http://www.w3.org/2000/svg" viewBox="0 0 1047.98 720.56">
  <defs>
    <style>
      .cls-1 {
        fill: #797979;
      }
    </style>
  </defs>
  <title>Asset 7</title>
  <g id="Layer_2" data-name="Layer 2">
    <g id="Pacific">
      <polygon class="cls-1" points="138.01 0 0 143.76 100.06 277.17 138.01 466.93 204.71 503.28 144.91 313.97 253.01 345.63 326.62 286.37 261.06 162.16 300.17 113.86 138.01 0"/>
      <polygon class="cls-1" points="60.95 411.72 244.96 603.78 228.86 630.24 617.58 675.09 583.38 704.99 228.86 653.24 62.1 465.78 60.95 411.72"/>
      <polygon class="cls-1" points="444.89 390.14 286.63 503.28 326.62 584.75 406.39 596.52 464.14 508.83 444.89 390.14"/>
      <polygon class="cls-1" points="489.8 219.05 606.36 403.34 622.21 365.55 533.64 242.58 544.34 167.72 489.8 219.05"/>
      <polygon class="cls-1" points="830.91 545.19 980.61 611.49 1047.98 720.56 944.26 656.4 891.51 689.55 806.32 606.14 711.15 577.27 830.91 545.19"/>
      <path class="cls-1" d="M596.73,493.33c-3.21-.54-112.28,46.51-112.28,46.51v98.38l24.6-79.86Z"/>
      <polygon class="cls-1" points="617.58 583.68 691.9 583.68 667.31 596.52 617.58 583.68"/>
    </g>
  </g>
</svg>
