<svg xmlns="http://www.w3.org/2000/svg" viewBox="0 0 821.19 842.12">
  <defs>
    <style>
      .cls-1 {
        fill: #797979;
      }
    </style>
  </defs>
  <title>Asset 6</title>
  <g id="Layer_2" data-name="Layer 2">
    <g id="Europe">
      <polygon class="cls-1" points="605.47 0 376.87 213.04 390.18 267.56 450.54 275.17 391.13 372.59 288.95 424.87 163.96 453.86 186.77 505.66 166.81 568.4 57.51 518.02 0 649.19 43.72 710.5 140.67 710.5 256.63 615.45 335.06 616.64 432.48 751.84 428.67 809.82 480.95 761.82 479.05 739.01 429.62 682.93 390.65 621.62 436.04 606 509.46 693.39 542.9 796.04 586.46 842.12 613.07 803.64 602.59 745.56 676.75 718.57 699.56 642.53 739.96 595.01 821.19 519.55 747.59 434.44 683.19 340.14 694.34 265.66 730.34 180.28 681.98 5.7 605.47 0"/>
      <polygon class="cls-1" points="260.44 208.32 281.82 247.29 260.44 264.87 281.82 339.01 271.13 393.19 210.53 407.45 214.81 379.41 169.66 389.7 182.02 298.45 214.94 275.62 208.16 246.81 260.44 208.32"/>
    </g>
  </g>
</svg>
